<svg id="Layer_1" xmlns="http://www.w3.org/2000/svg" version="1.1" xml:space="preserve" height="21.23" viewBox="0 0 229.0997 159.22212" width="30.547" enable-background="new 0 0 300 300" xmlns:cc="http://creativecommons.org/ns#" xmlns:dc="http://purl.org/dc/elements/1.1/"><path id="path5040" style="stroke-linejoin:round;stroke:#000;stroke-linecap:round;stroke-miterlimit:10;stroke-width:7;fill:none" stroke-miterlimit="10" d="m167.55 75.5h-152.45c1.053 28.343 24.349 64 52.949 64h92c28.6 0 51.896-35.657 52.949-64h-45.449"/><line id="line5042" style="stroke-linejoin:round;stroke:#000;stroke-linecap:round;stroke-miterlimit:10;stroke-width:7;fill:none" y2="75.5" y1="75.5" stroke-miterlimit="10" x2="16.55" x1="3.5498"/><line id="line5044" style="stroke-linejoin:round;stroke:#000;stroke-linecap:round;stroke-miterlimit:10;stroke-width:7;fill:none" y2="75.5" y1="75.5" stroke-miterlimit="10" x2="225.55" x1="212.55"/><line id="line5046" style="stroke-linejoin:round;stroke:#000;stroke-linecap:round;stroke-miterlimit:10;stroke-width:7;fill:none" y2="155.68" y1="141.32" stroke-miterlimit="10" x2="56.591" x1="62.508"/><line id="line5048" style="stroke-linejoin:round;stroke:#000;stroke-linecap:round;stroke-miterlimit:10;stroke-width:7;fill:none" y2="155.68" y1="141.32" stroke-miterlimit="10" x2="173.51" x1="167.59"/><path id="path5050" style="stroke-linejoin:round;stroke:#000;stroke-linecap:round;stroke-miterlimit:10;stroke-width:6;fill:none" stroke-miterlimit="10" d="m46.55 29v-10c0-8.837-7.164-16-16-16s-16 7.163-16 16v57"/><line id="line5052" style="stroke-linejoin:round;stroke:#000;stroke-linecap:round;stroke-miterlimit:10;stroke-width:6;fill:none" y2="30" y1="30" stroke-miterlimit="10" x2="58.55" x1="35.55"/><g id="g5054" stroke-miterlimit="10" transform="translate(-35.45 -103)"><rect id="rect5056" style="stroke-linejoin:round;stroke:#000;stroke-linecap:round;stroke-miterlimit:10;stroke-width:6;fill:none" height="37" width="33" y="178" x="169"/><line id="line5058" style="stroke-linejoin:round;stroke:#000;stroke-linecap:round;stroke-miterlimit:10;stroke-width:7;fill:none" y2="196.5" y1="196.5" x2="201" x1="170"/></g></svg>
