<svg id="Layer_1" xmlns="http://www.w3.org/2000/svg" version="1.1" xml:space="preserve" height="22.406" viewBox="0 0 217.00061 168.04274" width="28.933" enable-background="new 0 0 300 300" xmlns:cc="http://creativecommons.org/ns#" xmlns:dc="http://purl.org/dc/elements/1.1/"><g id="g5712" stroke-miterlimit="10" transform="translate(-41 -66)"><path id="path5714" style="stroke-linejoin:round;stroke:#000;stroke-linecap:round;stroke-miterlimit:10;stroke-width:6;fill:none" d="m225.65 137h-149.92c-16.697 0-31.73 12.27-31.73 28.96v43.525c0 2.003 3.124 4.513 5.127 4.513h203.12c2.004 0 2.755-2.51 2.755-4.513v-43.525c0-16.69-12.66-28.96-29.35-28.96z"/><path id="path5716" style="stroke-linejoin:round;stroke:#000;stroke-linecap:round;stroke-miterlimit:10;stroke-width:6;fill:none" d="m255 176.63c0-2.01-1.62-3.63-3.63-3.63h-203.74c-2.006 0-3.63 1.62-3.63 3.63v33.746c0 2.003 1.624 3.627 3.627 3.627h203.75c2.003 0 3.627-1.624 3.627-3.627v-33.746z"/><path id="path5718" style="stroke-linejoin:round;stroke:#000;stroke-linecap:round;stroke-miterlimit:10;stroke-width:6;fill:none" d="m237 126v-54.343c0-2.003-0.89-2.657-2.89-2.657h-166.85c-2 0-4.26 0.654-4.26 2.657v54.343"/><line id="line5720" style="stroke-linejoin:round;stroke:#000;stroke-linecap:round;stroke-miterlimit:10;stroke-width:6;fill:none" y2="231" y1="195" x2="44" x1="44"/><line id="line5722" style="stroke-linejoin:round;stroke:#000;stroke-linecap:round;stroke-miterlimit:10;stroke-width:6;fill:none" y2="231" y1="195" x2="255" x1="255"/><path id="path5724" style="stroke-linejoin:round;stroke:#000;stroke-linecap:round;stroke-miterlimit:10;stroke-width:6;fill:none" d="m199.54 125.91c0-8.987 1.927-18.451 1.927-18.451 0-1.595-1.294-3.046-2.89-3.046 0 0-8.986 1.846-17.812 1.846s-18.774-1.965-18.774-1.965c-1.597 0-2.891 1.273-2.891 2.869 0 0 1.927 9.128 1.927 18.757"/><path id="path5726" style="stroke-linejoin:round;stroke:#000;stroke-linecap:round;stroke-miterlimit:10;stroke-width:6;fill:none" d="m140.35 125.91c0-8.987 1.926-18.451 1.926-18.451 0-1.595-1.294-3.046-2.889-3.046 0 0-8.987 1.846-17.812 1.846-8.827 0-18.775-1.965-18.775-1.965-1.597 0-2.889 1.273-2.889 2.869 0 0 1.925 9.128 1.925 18.757"/></g></svg>
