<svg id="Layer_1" xmlns="http://www.w3.org/2000/svg" style="stroke:#000;fill:#000" xml:space="preserve" viewBox="0 0 199.2 151.3" height="151.3" width="199.2" version="1.1" xmlns:cc="http://creativecommons.org/ns#" xmlns:dc="http://purl.org/dc/elements/1.1/"><g id="g4378" transform="translate(-49,-77.7)"><path id="path4382" d="m95.1 126.8h107.2c2 0 3.9-0.9 5.1-2.6 1.2-1.6 1.6-3.7 1-5.6l-7.2-24.6c-0.8-2.7-3.3-4.6-6.1-4.6h-91.4c-2.7 0-5.1 1.7-6 4.3l-8.6 24.6c-0.7 1.9-0.4 4.1 0.8 5.8s3.2 2.7 5.2 2.7zm-1-6.7 8.6-24.6c0.2-0.4 0.6-0.7 1-0.7h91.4c0.5 0 0.9 0.3 1.1 0.8l7.2 24.6c0.1 0.5-0.1 0.8-0.2 1s-0.4 0.4-0.9 0.4h-107.2c-0.5 0-0.8-0.3-0.9-0.5s-0.3-0.5-0.1-1z"/><path id="path4384" d="m106 159.1-14.4-9.4c-1.4-0.9-3-1.4-4.7-1.4h-11.5c-4.7 0-8.5 3.8-8.5 8.5v9.4c0 4.7 3.8 8.5 8.5 8.5h25.9c4.7 0 8.5-3.8 8.5-8.5 0.1-2.8-1.4-5.5-3.8-7.1zm-4.6 10.4h-26c-1.8 0-3.2-1.5-3.2-3.2v-9.4c0-1.8 1.5-3.2 3.2-3.2h11.5c0.6 0 1.2 0.2 1.8 0.5l14.4 9.4c0.9 0.6 1.5 1.6 1.5 2.7 0 1.7-1.4 3.2-3.2 3.2z"/><path id="path4386" d="m221.4 148.3h-11.5c-1.7 0-3.3 0.5-4.7 1.4l-14.4 9.4c-2.4 1.6-3.9 4.2-3.9 7.1 0 4.7 3.8 8.5 8.5 8.5h25.9c4.7 0 8.5-3.8 8.5-8.5v-9.4c0.2-4.7-3.7-8.5-8.4-8.5zm3.3 17.9c0 1.8-1.5 3.2-3.2 3.2h-25.9c-1.8 0-3.2-1.5-3.2-3.2 0-1.1 0.6-2.1 1.5-2.7l14.4-9.4c0.5-0.3 1.1-0.5 1.8-0.5h11.5c1.8 0 3.2 1.5 3.2 3.2v9.4z"/><path id="path4388" d="m236.6 101.1h-2.1c-5.3 0-9.9 3.6-11.2 8.7l-0.7 2.9-9.8-26.3c-1.9-5.2-7-8.7-12.5-8.7h-102.8c-5.5 0-10.6 3.5-12.5 8.7l-9.8 26.3-0.4 0.5-1-3.9c-1.3-5.1-5.9-8.7-11.2-8.7h-2.1c-6.3 0-11.5 5.2-11.5 11.5 0 5.7 4.2 10.6 9.9 11.4l4.8 0.7 1.1 2.9-6.3 8.8c-3.5 3.7-5.5 8.6-5.5 13.7v41.7c0 5.2 3.2 9.8 7.9 11.7v18.7c0 4 3.3 7.3 7.3 7.3h19.8c4 0 7.3-3.3 7.3-7.3v-17.8h106.6v17.8c0 4 3.3 7.3 7.3 7.3h19.7c4 0 7.3-3.3 7.3-7.3v-18.5c5-1.7 8.6-6.4 8.6-11.9v-41.7c0-5.1-1.9-10-5.5-13.7l-6.6-9.2 0.8-2.1 4.8-0.7c5.6-0.8 9.9-5.7 9.9-11.4-0.1-6.3-5.2-11.4-11.6-11.4zm-176.9 17.2c-3-0.4-5.3-3.1-5.3-6.2 0-3.4 2.8-6.2 6.2-6.2h2.1c2.9 0 5.3 1.9 6 4.7l2.1 8.2-2.2 3.1-0.5-1.1c-0.3-0.9-1.1-1.5-2.1-1.6l-6.3-0.9zm28.3 105.4h-19.7c-1.1 0-2-0.9-2-2v-17.1h23.7v17.1c0 1.1-0.9 2-2 2zm140.9 0h-19.7c-1.1 0-2-0.9-2-2v-17.1h23.8v17.1c-0.1 1.1-1 2-2.1 2zm6.2-84.6c0.1 0.1 0.2 0.2 0.2 0.3 2.7 2.7 4.1 6.4 4.1 10.2v41.7c0 3.6-2.7 6.8-6.4 7.2-0.6 0.1-1.1 0.4-1.5 0.8h-25.3c-0.5-0.4-1.1-0.7-1.8-0.7h-112c-0.7 0-1.3 0.3-1.7 0.7h-25.1c-0.4-0.4-0.9-0.7-1.5-0.8-3.4-0.7-5.9-3.7-5.9-7.2v-41.7c0-3.8 1.5-7.5 4.1-10.2 0.1-0.1 0.2-0.2 0.2-0.3l7.3-10.1 5.8-8 3.9-5.5 0.3-0.6 10-26.7c1.2-3.1 4.2-5.2 7.6-5.2h102.9c3.3 0 6.4 2.1 7.6 5.2l9.8 26.3c0.1 0.4 0.2 0.7 0.4 1l3.5 4.9 5.9 8.1 7.6 10.6zm2.4-20.4-6.3 0.9c-0.9 0.1-1.7 0.8-2.1 1.6l-0.1 0.3-2.3-3.2 1.8-7.3c0.7-2.8 3.2-4.7 6-4.7h2.1c3.4 0 6.2 2.8 6.2 6.2 0 3.1-2.3 5.8-5.3 6.2z"/></g></svg>
